<?xml version="1.0" encoding="UTF-8"?>
<svg version="1.1" xmlns="http://www.w3.org/2000/svg" width="512" height="512">
<path d="M0 0 C1.75972457 0.82318984 3.52082505 1.64344402 5.28320312 2.4609375 C8.02377628 3.73252641 10.76340948 5.00579645 13.49902344 6.2880249 C22.16940546 10.34968601 30.92526303 14.20099692 39.70544434 18.01812744 C54.92655962 24.63925782 70.08241525 31.39872566 85.20751953 38.23590088 C100.25592054 45.03621727 115.36437643 51.69424563 130.50390625 58.2890625 C131.33233032 58.65081573 132.16075439 59.01256897 133.01428223 59.38528442 C134.54660204 60.05434006 136.07965828 60.72171313 137.61364746 61.38693237 C141.13134429 62.92399427 144.62612254 64.50506472 148.08789062 66.16455078 C148.72102173 66.46692657 149.35415283 66.76930237 150.00646973 67.08084106 C153.91380207 69.42084975 156.3168211 72.82546331 157.75 77.125 C157.84690023 78.94619585 157.8849609 80.77074927 157.89044189 82.59451294 C157.89615204 83.73207535 157.90186218 84.86963776 157.90774536 86.04167175 C157.90886322 87.29136246 157.90998108 88.54105316 157.91113281 89.82861328 C157.91609772 91.14464035 157.92106262 92.46066742 157.92617798 93.8165741 C157.93931136 97.43572772 157.94575201 101.05486276 157.95018864 104.6740365 C157.95312569 106.94584937 157.9572323 109.21765727 157.96169281 111.48946762 C157.9753874 118.6266309 157.98503715 125.76378268 157.9888947 132.90095818 C157.99334165 141.0809449 158.01072237 149.26076169 158.0398953 157.44069684 C158.06174538 163.79354045 158.07161166 170.1463372 158.07293582 176.49921787 C158.07396997 180.27661545 158.07956928 184.05385384 158.09775543 187.83121109 C158.21577766 213.87512277 156.07138499 238.79603067 149.75 264.125 C149.46817871 265.26026123 149.46817871 265.26026123 149.18066406 266.41845703 C142.42975326 292.88660017 130.02438305 318.24824839 113.75 340.125 C113.31751953 340.71297363 112.88503906 341.30094727 112.43945312 341.90673828 C82.55527456 382.25037934 39.40985259 411.286947 -7.75 427.6875 C-9.19947021 428.20787842 -9.19947021 428.20787842 -10.67822266 428.73876953 C-21.92972478 432.49568903 -31.43381546 431.76062362 -42.5 427.8125 C-43.52504639 427.45712158 -44.55009277 427.10174316 -45.60620117 426.7355957 C-77.50493851 415.36177589 -106.90132594 398.11981426 -131.89453125 375.2578125 C-133.91311204 373.43004283 -135.97228353 371.68153806 -138.0625 369.9375 C-181.35090363 331.96216 -204.39491432 272.48850382 -208.25 216.125 C-208.39320085 211.48695036 -208.40698587 206.85170767 -208.41113281 202.21166992 C-208.4157735 200.85034047 -208.42079979 199.48901229 -208.42617798 198.12768555 C-208.43916965 194.46482817 -208.4457188 190.80198899 -208.45018864 187.13911223 C-208.45313636 184.84663324 -208.45724386 182.55415905 -208.46169281 180.26168251 C-208.47532267 173.07599769 -208.48501556 165.89032406 -208.4888947 158.70462722 C-208.49338737 150.43114186 -208.51100991 142.15782071 -208.5398953 133.88438529 C-208.56151308 127.46883279 -208.57159876 121.05332657 -208.57293582 114.63773805 C-208.57398226 110.81355931 -208.57985784 106.98953591 -208.59775543 103.16539574 C-208.61424156 99.57425439 -208.61638921 95.98338527 -208.60761642 92.39221954 C-208.60648058 90.45160948 -208.6201871 88.5110084 -208.6343689 86.57044983 C-208.59860805 79.10949472 -208.17580542 74.2186795 -202.8671875 68.60546875 C-198.49353288 65.24307147 -193.3289761 63.32166448 -188.26815796 61.22329712 C-184.90724575 59.82827611 -181.56208309 58.39619292 -178.21484375 56.96875 C-177.49595474 56.66310623 -176.77706573 56.35746246 -176.03639221 56.04255676 C-167.27747328 52.30645067 -158.61150697 48.365605 -149.9375 44.4375 C-135.40171412 37.86483175 -120.82196449 31.40110249 -106.20443726 25.01245117 C-91.37807288 18.53024164 -76.61182388 11.92077488 -61.88085938 5.22460938 C-58.08533085 3.50119993 -54.27943895 1.80255373 -50.46728516 0.11627197 C-48.2276133 -0.88500832 -46.00311351 -1.9160042 -43.77734375 -2.94775391 C-26.83252038 -10.62983482 -16.23722729 -7.8097149 0 0 Z M-67.25 102.125 C-77.80968836 115.85676866 -80.47014252 130.26794713 -79.25 147.125 C-77.95155714 156.6246043 -73.90563757 164.49733091 -68.25 172.125 C-67.31414062 173.38957031 -67.31414062 173.38957031 -66.359375 174.6796875 C-58.14044842 184.20755424 -44.85849429 191.1898887 -32.2890625 192.29785156 C-15.98434367 193.19946009 -1.33221963 189.78551803 11.51953125 179.25390625 C21.59163837 169.64042398 28.36355739 156.97224458 28.98828125 142.9375 C29.39547425 125.29797259 25.21420847 111.38200856 13.01171875 98.2265625 C-0.57865725 85.59854473 -15.99602837 83.31302908 -33.74511719 83.94580078 C-46.54246591 84.86132261 -58.69294046 92.93172786 -67.25 102.125 Z M-59.25 233.125 C-60.32846191 233.37443359 -60.32846191 233.37443359 -61.42871094 233.62890625 C-79.60637403 238.00906603 -98.18638055 246.39307283 -109.25 262.125 C-115.26720947 272.56662819 -118.32410981 282.17538396 -115.125 294.125 C-109.79849073 309.88258993 -98.11607147 319.5291541 -83.73046875 326.9375 C-51.87401137 342.27396787 -11.50060766 342.97537796 21.7578125 331.63671875 C32.31513031 327.78655618 42.35745696 322.66258543 50.75 315.125 C51.35972656 314.63 51.96945312 314.135 52.59765625 313.625 C60.01119455 307.10760369 65.09814995 296.58366889 65.953125 286.80078125 C66.20446567 274.12902265 61.19049347 263.82100297 52.6875 254.5 C32.15219062 235.4282316 2.1259854 229.69107595 -24.9375 229.8125 C-26.901427 229.81987183 -26.901427 229.81987183 -28.9050293 229.82739258 C-39.26630577 229.95188878 -49.15995547 230.75963654 -59.25 233.125 Z " fill="#ffffff" transform="translate(281.25,44.875)"/>
</svg>
