<svg xmlns="http://www.w3.org/2000/svg" viewBox="-1 0 16 16" id="Calendar--Streamline-Font-Awesome" height="16" width="16">
  <desc>
    Calendar Streamline Icon: https://streamlinehq.com
  </desc>
<!--! Font Awesome Free 6.5.2 by @fontawesome - https://fontawesome.com License - https://fontawesome.com/license/free (Icons: CC BY 4.0, Fonts: SIL OFL 1.1, Code: MIT License) Copyright 2024 Fonticons, Inc.-->
  <path d="M4.75 0.75c0 -0.415625 -0.334375 -0.75 -0.75 -0.75s-0.75 0.334375 -0.75 0.75v1.25H2C0.896875 2 0 2.896875 0 4v10c0 1.103125 0.896875 2 2 2h10c1.103125 0 2 -0.896875 2 -2V4c0 -1.103125 -0.896875 -2 -2 -2h-1.25V0.75c0 -0.415625 -0.334375 -0.75 -0.75 -0.75s-0.75 0.334375 -0.75 0.75v1.25H4.75V0.75zM1.5 6h11v8c0 0.275 -0.225 0.5 -0.5 0.5H2c-0.275 0 -0.5 -0.225 -0.5 -0.5V6z" fill="#d7d6df" stroke-width="0.0313"></path>
</svg>