<svg xmlns="http://www.w3.org/2000/svg" xmlns:xlink="http://www.w3.org/1999/xlink" width="500" zoomAndPan="magnify" viewBox="0 0 375 374.999991" height="500" preserveAspectRatio="xMidYMid meet" version="1.0"><defs><clipPath id="4e69eb6768"><path d="M 50.183594 4.414062 L 324.683594 4.414062 L 324.683594 370.414062 L 50.183594 370.414062 Z M 50.183594 4.414062 " clip-rule="nonzero"/></clipPath></defs><g clip-path="url(#4e69eb6768)"><path fill="#ff5757" d="M 305.636719 47.007812 L 256.417969 47.007812 L 256.417969 24.414062 C 256.417969 23.773438 256.382812 23.132812 256.320312 22.496094 C 256.257812 21.859375 256.164062 21.226562 256.039062 20.597656 C 255.914062 19.96875 255.757812 19.347656 255.570312 18.734375 C 255.382812 18.121094 255.167969 17.519531 254.921875 16.929688 C 254.675781 16.335938 254.402344 15.757812 254.101562 15.191406 C 253.796875 14.628906 253.46875 14.078125 253.113281 13.546875 C 252.757812 13.015625 252.375 12.5 251.96875 12.003906 C 251.5625 11.507812 251.132812 11.035156 250.679688 10.582031 C 250.226562 10.128906 249.753906 9.699219 249.257812 9.292969 C 248.761719 8.886719 248.246094 8.503906 247.714844 8.148438 C 247.183594 7.792969 246.632812 7.464844 246.070312 7.160156 C 245.503906 6.859375 244.925781 6.585938 244.332031 6.339844 C 243.742188 6.09375 243.140625 5.878906 242.527344 5.691406 C 241.914062 5.503906 241.292969 5.347656 240.664062 5.222656 C 240.035156 5.097656 239.402344 5.003906 238.765625 4.941406 C 238.128906 4.875 237.488281 4.84375 236.847656 4.84375 L 138.804688 4.84375 C 138.164062 4.84375 137.527344 4.875 136.886719 4.941406 C 136.25 5.003906 135.617188 5.097656 134.988281 5.222656 C 134.359375 5.347656 133.742188 5.503906 133.128906 5.691406 C 132.515625 5.878906 131.910156 6.09375 131.320312 6.339844 C 130.726562 6.585938 130.148438 6.859375 129.585938 7.160156 C 129.019531 7.464844 128.472656 7.792969 127.9375 8.148438 C 127.40625 8.503906 126.890625 8.886719 126.398438 9.292969 C 125.902344 9.699219 125.425781 10.128906 124.972656 10.582031 C 124.519531 11.035156 124.089844 11.507812 123.683594 12.003906 C 123.277344 12.5 122.898438 13.015625 122.539062 13.546875 C 122.183594 14.078125 121.855469 14.628906 121.554688 15.191406 C 121.25 15.757812 120.976562 16.335938 120.730469 16.929688 C 120.484375 17.519531 120.269531 18.121094 120.082031 18.734375 C 119.898438 19.347656 119.742188 19.96875 119.617188 20.597656 C 119.488281 21.226562 119.394531 21.859375 119.332031 22.496094 C 119.269531 23.132812 119.238281 23.773438 119.234375 24.414062 L 119.234375 47.007812 L 70.015625 47.007812 C 69.375 47.011719 68.734375 47.042969 68.097656 47.105469 C 67.460938 47.167969 66.828125 47.265625 66.199219 47.390625 C 65.570312 47.515625 64.949219 47.671875 64.335938 47.855469 C 63.722656 48.042969 63.121094 48.257812 62.53125 48.503906 C 61.9375 48.75 61.359375 49.023438 60.792969 49.328125 C 60.230469 49.628906 59.679688 49.957031 59.148438 50.3125 C 58.617188 50.671875 58.101562 51.050781 57.605469 51.457031 C 57.109375 51.863281 56.636719 52.292969 56.183594 52.746094 C 55.730469 53.199219 55.300781 53.675781 54.894531 54.171875 C 54.488281 54.664062 54.105469 55.179688 53.75 55.710938 C 53.394531 56.246094 53.066406 56.792969 52.761719 57.359375 C 52.460938 57.921875 52.1875 58.5 51.941406 59.09375 C 51.695312 59.6875 51.480469 60.289062 51.292969 60.902344 C 51.105469 61.515625 50.949219 62.132812 50.824219 62.761719 C 50.699219 63.390625 50.605469 64.023438 50.542969 64.660156 C 50.476562 65.300781 50.445312 65.9375 50.445312 66.578125 L 50.445312 80.929688 C 50.464844 81.667969 50.527344 82.398438 50.625 83.128906 C 50.722656 83.855469 50.863281 84.578125 51.039062 85.292969 C 51.214844 86.007812 51.429688 86.707031 51.683594 87.398438 C 51.9375 88.089844 52.226562 88.765625 52.550781 89.425781 C 52.878906 90.085938 53.238281 90.726562 53.632812 91.347656 C 54.027344 91.96875 54.453125 92.566406 54.914062 93.140625 C 55.371094 93.714844 55.863281 94.265625 56.378906 94.785156 C 56.898438 95.308594 57.441406 95.800781 58.015625 96.265625 C 58.585938 96.726562 59.179688 97.160156 59.800781 97.558594 C 60.417969 97.957031 61.054688 98.324219 61.710938 98.652344 C 62.371094 98.984375 63.042969 99.277344 63.730469 99.535156 C 64.421875 99.792969 65.121094 100.011719 65.835938 100.195312 C 66.546875 100.378906 67.269531 100.519531 67.996094 100.625 C 68.722656 100.730469 69.457031 100.796875 70.191406 100.820312 C 70.925781 100.847656 71.660156 100.832031 72.394531 100.777344 C 73.128906 100.726562 73.859375 100.632812 74.582031 100.5 L 86.128906 339.105469 C 86.175781 340.140625 86.273438 341.167969 86.421875 342.195312 C 86.570312 343.21875 86.765625 344.234375 87.007812 345.242188 C 87.253906 346.25 87.542969 347.242188 87.882812 348.222656 C 88.222656 349.199219 88.605469 350.160156 89.035156 351.101562 C 89.46875 352.042969 89.941406 352.964844 90.460938 353.859375 C 90.976562 354.757812 91.535156 355.628906 92.136719 356.472656 C 92.738281 357.316406 93.378906 358.128906 94.058594 358.910156 C 94.734375 359.691406 95.449219 360.441406 96.199219 361.15625 C 96.949219 361.871094 97.730469 362.546875 98.546875 363.1875 C 99.359375 363.828125 100.203125 364.425781 101.074219 364.984375 C 101.949219 365.546875 102.84375 366.0625 103.765625 366.535156 C 104.6875 367.007812 105.628906 367.4375 106.589844 367.824219 C 107.550781 368.207031 108.53125 368.542969 109.523438 368.835938 C 110.515625 369.125 111.523438 369.367188 112.539062 369.5625 C 113.558594 369.757812 114.582031 369.90625 115.613281 370.003906 C 116.644531 370.097656 117.679688 370.148438 118.714844 370.144531 L 256.9375 370.144531 C 257.972656 370.148438 259.007812 370.097656 260.039062 370 C 261.066406 369.902344 262.09375 369.757812 263.109375 369.5625 C 264.125 369.367188 265.132812 369.125 266.125 368.832031 C 267.121094 368.542969 268.097656 368.207031 269.058594 367.820312 C 270.019531 367.4375 270.960938 367.007812 271.882812 366.535156 C 272.804688 366.058594 273.699219 365.542969 274.570312 364.984375 C 275.441406 364.425781 276.285156 363.824219 277.101562 363.183594 C 277.914062 362.546875 278.695312 361.867188 279.445312 361.152344 C 280.195312 360.441406 280.910156 359.691406 281.589844 358.910156 C 282.265625 358.125 282.90625 357.3125 283.507812 356.46875 C 284.109375 355.625 284.667969 354.757812 285.183594 353.859375 C 285.703125 352.964844 286.175781 352.042969 286.609375 351.101562 C 287.039062 350.160156 287.421875 349.199219 287.761719 348.21875 C 288.097656 347.242188 288.390625 346.25 288.636719 345.242188 C 288.878906 344.238281 289.074219 343.222656 289.222656 342.195312 C 289.367188 341.171875 289.464844 340.140625 289.515625 339.105469 L 301.0625 100.5 C 301.785156 100.628906 302.515625 100.722656 303.25 100.777344 C 303.980469 100.832031 304.714844 100.84375 305.453125 100.820312 C 306.1875 100.792969 306.917969 100.726562 307.648438 100.625 C 308.375 100.519531 309.097656 100.375 309.808594 100.195312 C 310.523438 100.011719 311.222656 99.792969 311.910156 99.535156 C 312.601562 99.277344 313.273438 98.980469 313.929688 98.652344 C 314.589844 98.320312 315.226562 97.957031 315.84375 97.554688 C 316.460938 97.15625 317.058594 96.726562 317.628906 96.261719 C 318.199219 95.800781 318.746094 95.304688 319.265625 94.785156 C 319.78125 94.261719 320.269531 93.714844 320.730469 93.136719 C 321.1875 92.5625 321.617188 91.964844 322.011719 91.34375 C 322.40625 90.722656 322.765625 90.082031 323.089844 89.425781 C 323.417969 88.765625 323.707031 88.089844 323.960938 87.398438 C 324.210938 86.707031 324.425781 86.003906 324.605469 85.289062 C 324.78125 84.574219 324.917969 83.855469 325.019531 83.125 C 325.117188 82.394531 325.175781 81.664062 325.199219 80.929688 L 325.199219 66.578125 C 325.195312 65.9375 325.164062 65.296875 325.101562 64.660156 C 325.039062 64.023438 324.945312 63.390625 324.816406 62.761719 C 324.691406 62.132812 324.535156 61.511719 324.351562 60.902344 C 324.164062 60.289062 323.949219 59.6875 323.703125 59.09375 C 323.457031 58.503906 323.183594 57.925781 322.882812 57.359375 C 322.578125 56.792969 322.25 56.246094 321.894531 55.714844 C 321.539062 55.179688 321.15625 54.667969 320.75 54.171875 C 320.34375 53.675781 319.914062 53.203125 319.460938 52.75 C 319.007812 52.296875 318.535156 51.867188 318.039062 51.460938 C 317.542969 51.054688 317.03125 50.671875 316.5 50.316406 C 315.964844 49.960938 315.417969 49.632812 314.851562 49.328125 C 314.289062 49.027344 313.710938 48.753906 313.117188 48.507812 C 312.527344 48.261719 311.925781 48.046875 311.3125 47.859375 C 310.699219 47.671875 310.078125 47.515625 309.449219 47.390625 C 308.824219 47.265625 308.191406 47.171875 307.550781 47.105469 C 306.914062 47.042969 306.277344 47.011719 305.636719 47.007812 Z M 132.28125 24.414062 C 132.28125 23.984375 132.324219 23.5625 132.410156 23.140625 C 132.492188 22.722656 132.617188 22.3125 132.78125 21.917969 C 132.945312 21.523438 133.144531 21.148438 133.382812 20.792969 C 133.621094 20.433594 133.890625 20.105469 134.195312 19.804688 C 134.496094 19.5 134.828125 19.230469 135.183594 18.992188 C 135.539062 18.753906 135.914062 18.550781 136.308594 18.386719 C 136.707031 18.222656 137.113281 18.101562 137.535156 18.015625 C 137.953125 17.933594 138.378906 17.890625 138.804688 17.890625 L 236.84375 17.890625 C 237.273438 17.890625 237.699219 17.933594 238.117188 18.015625 C 238.539062 18.101562 238.945312 18.222656 239.339844 18.386719 C 239.734375 18.550781 240.113281 18.753906 240.46875 18.992188 C 240.824219 19.230469 241.152344 19.5 241.457031 19.804688 C 241.757812 20.105469 242.027344 20.433594 242.265625 20.792969 C 242.503906 21.148438 242.707031 21.523438 242.871094 21.917969 C 243.035156 22.3125 243.15625 22.722656 243.242188 23.140625 C 243.324219 23.5625 243.367188 23.984375 243.367188 24.414062 L 243.367188 47.007812 L 132.28125 47.007812 Z M 276.480469 338.480469 C 276.453125 339.097656 276.394531 339.71875 276.304688 340.332031 C 276.21875 340.949219 276.101562 341.558594 275.953125 342.160156 C 275.808594 342.765625 275.632812 343.359375 275.429688 343.945312 C 275.226562 344.535156 274.996094 345.109375 274.738281 345.675781 C 274.480469 346.242188 274.195312 346.792969 273.882812 347.332031 C 273.574219 347.867188 273.238281 348.390625 272.878906 348.894531 C 272.515625 349.402344 272.132812 349.890625 271.726562 350.359375 C 271.320312 350.828125 270.890625 351.277344 270.441406 351.707031 C 269.992188 352.136719 269.523438 352.542969 269.035156 352.925781 C 268.546875 353.308594 268.039062 353.667969 267.515625 354.003906 C 266.992188 354.339844 266.457031 354.648438 265.902344 354.933594 C 265.351562 355.21875 264.785156 355.476562 264.210938 355.707031 C 263.632812 355.9375 263.046875 356.140625 262.449219 356.3125 C 261.851562 356.488281 261.25 356.632812 260.640625 356.75 C 260.03125 356.867188 259.414062 356.953125 258.796875 357.011719 C 258.179688 357.070312 257.558594 357.101562 256.9375 357.101562 L 118.714844 357.101562 C 118.09375 357.101562 117.472656 357.070312 116.855469 357.011719 C 116.234375 356.953125 115.621094 356.867188 115.011719 356.75 C 114.398438 356.632812 113.796875 356.488281 113.199219 356.3125 C 112.605469 356.136719 112.015625 355.9375 111.441406 355.707031 C 110.863281 355.476562 110.296875 355.21875 109.746094 354.933594 C 109.195312 354.648438 108.65625 354.339844 108.132812 354.003906 C 107.609375 353.667969 107.105469 353.308594 106.617188 352.925781 C 106.128906 352.539062 105.660156 352.132812 105.207031 351.707031 C 104.757812 351.277344 104.332031 350.828125 103.921875 350.359375 C 103.515625 349.886719 103.132812 349.402344 102.773438 348.894531 C 102.410156 348.386719 102.074219 347.867188 101.765625 347.328125 C 101.453125 346.789062 101.171875 346.238281 100.914062 345.671875 C 100.65625 345.109375 100.421875 344.53125 100.21875 343.945312 C 100.019531 343.355469 99.84375 342.761719 99.695312 342.15625 C 99.550781 341.554688 99.433594 340.945312 99.34375 340.328125 C 99.257812 339.714844 99.199219 339.097656 99.167969 338.476562 L 87.652344 100.5 L 288 100.5 Z M 312.160156 80.929688 C 312.15625 81.355469 312.117188 81.78125 312.03125 82.199219 C 311.949219 82.621094 311.824219 83.027344 311.660156 83.425781 C 311.496094 83.820312 311.296875 84.195312 311.058594 84.550781 C 310.820312 84.90625 310.546875 85.238281 310.246094 85.539062 C 309.941406 85.84375 309.613281 86.113281 309.257812 86.351562 C 308.902344 86.589844 308.527344 86.789062 308.128906 86.953125 C 307.734375 87.117188 307.328125 87.242188 306.90625 87.324219 C 306.488281 87.410156 306.0625 87.453125 305.636719 87.453125 L 70.015625 87.453125 C 69.585938 87.453125 69.164062 87.410156 68.742188 87.324219 C 68.324219 87.242188 67.914062 87.117188 67.519531 86.953125 C 67.125 86.789062 66.75 86.589844 66.394531 86.351562 C 66.035156 86.113281 65.707031 85.84375 65.40625 85.539062 C 65.101562 85.238281 64.832031 84.90625 64.59375 84.550781 C 64.355469 84.195312 64.15625 83.820312 63.992188 83.425781 C 63.828125 83.027344 63.703125 82.621094 63.617188 82.199219 C 63.535156 81.78125 63.492188 81.355469 63.492188 80.929688 L 63.492188 66.578125 C 63.492188 66.148438 63.535156 65.726562 63.617188 65.304688 C 63.703125 64.886719 63.828125 64.476562 63.992188 64.082031 C 64.15625 63.6875 64.355469 63.3125 64.59375 62.953125 C 64.832031 62.597656 65.101562 62.269531 65.40625 61.964844 C 65.707031 61.664062 66.035156 61.394531 66.394531 61.15625 C 66.75 60.917969 67.125 60.714844 67.519531 60.550781 C 67.914062 60.386719 68.324219 60.265625 68.742188 60.179688 C 69.164062 60.097656 69.585938 60.054688 70.015625 60.054688 L 305.636719 60.054688 C 306.0625 60.054688 306.488281 60.097656 306.90625 60.179688 C 307.328125 60.265625 307.734375 60.386719 308.128906 60.550781 C 308.527344 60.714844 308.902344 60.917969 309.257812 61.15625 C 309.613281 61.394531 309.941406 61.664062 310.246094 61.964844 C 310.550781 62.269531 310.820312 62.597656 311.058594 62.953125 C 311.296875 63.3125 311.496094 63.6875 311.660156 64.082031 C 311.824219 64.476562 311.949219 64.886719 312.03125 65.304688 C 312.117188 65.726562 312.15625 66.148438 312.160156 66.578125 Z M 312.160156 80.929688 " fill-opacity="1" fill-rule="nonzero"/></g><path fill="#ff5757" d="M 187.824219 302.734375 C 188.253906 302.734375 188.679688 302.691406 189.097656 302.609375 C 189.519531 302.527344 189.925781 302.402344 190.320312 302.238281 C 190.71875 302.074219 191.09375 301.875 191.449219 301.636719 C 191.804688 301.398438 192.136719 301.128906 192.4375 300.824219 C 192.742188 300.519531 193.011719 300.191406 193.25 299.835938 C 193.488281 299.480469 193.6875 299.105469 193.851562 298.707031 C 194.015625 298.3125 194.140625 297.902344 194.222656 297.484375 C 194.308594 297.0625 194.347656 296.640625 194.347656 296.210938 L 194.347656 161.386719 C 194.347656 160.957031 194.308594 160.535156 194.222656 160.113281 C 194.140625 159.695312 194.015625 159.285156 193.851562 158.890625 C 193.6875 158.496094 193.488281 158.117188 193.25 157.761719 C 193.011719 157.40625 192.742188 157.078125 192.4375 156.773438 C 192.136719 156.472656 191.804688 156.199219 191.449219 155.960938 C 191.09375 155.722656 190.71875 155.523438 190.320312 155.359375 C 189.925781 155.195312 189.519531 155.070312 189.097656 154.988281 C 188.679688 154.90625 188.253906 154.863281 187.824219 154.863281 C 187.398438 154.863281 186.972656 154.90625 186.554688 154.988281 C 186.132812 155.070312 185.726562 155.195312 185.328125 155.359375 C 184.933594 155.523438 184.558594 155.722656 184.203125 155.960938 C 183.84375 156.199219 183.515625 156.472656 183.210938 156.773438 C 182.910156 157.078125 182.640625 157.40625 182.402344 157.761719 C 182.164062 158.117188 181.960938 158.496094 181.796875 158.890625 C 181.636719 159.285156 181.511719 159.695312 181.425781 160.113281 C 181.34375 160.535156 181.300781 160.957031 181.300781 161.386719 L 181.300781 296.210938 C 181.300781 296.640625 181.34375 297.0625 181.425781 297.484375 C 181.511719 297.902344 181.636719 298.3125 181.796875 298.707031 C 181.960938 299.105469 182.164062 299.480469 182.402344 299.835938 C 182.640625 300.191406 182.910156 300.519531 183.210938 300.824219 C 183.515625 301.128906 183.84375 301.398438 184.203125 301.636719 C 184.558594 301.875 184.933594 302.074219 185.328125 302.238281 C 185.726562 302.402344 186.132812 302.527344 186.554688 302.609375 C 186.972656 302.691406 187.398438 302.734375 187.824219 302.734375 Z M 187.824219 302.734375 " fill-opacity="1" fill-rule="nonzero"/><path fill="#ff5757" d="M 240.011719 302.734375 C 240.441406 302.734375 240.863281 302.691406 241.285156 302.609375 C 241.703125 302.527344 242.113281 302.402344 242.507812 302.238281 C 242.902344 302.074219 243.28125 301.875 243.636719 301.636719 C 243.992188 301.398438 244.320312 301.128906 244.625 300.824219 C 244.925781 300.519531 245.199219 300.191406 245.433594 299.835938 C 245.671875 299.480469 245.875 299.105469 246.039062 298.707031 C 246.203125 298.3125 246.324219 297.902344 246.410156 297.484375 C 246.492188 297.0625 246.535156 296.640625 246.535156 296.210938 L 246.535156 161.386719 C 246.535156 160.957031 246.492188 160.535156 246.410156 160.113281 C 246.324219 159.695312 246.203125 159.285156 246.039062 158.890625 C 245.875 158.496094 245.671875 158.117188 245.433594 157.761719 C 245.199219 157.40625 244.925781 157.078125 244.625 156.773438 C 244.320312 156.472656 243.992188 156.199219 243.636719 155.960938 C 243.28125 155.722656 242.902344 155.523438 242.507812 155.359375 C 242.113281 155.195312 241.703125 155.070312 241.285156 154.988281 C 240.863281 154.90625 240.441406 154.863281 240.011719 154.863281 C 239.582031 154.863281 239.160156 154.90625 238.738281 154.988281 C 238.320312 155.070312 237.910156 155.195312 237.515625 155.359375 C 237.121094 155.523438 236.742188 155.722656 236.386719 155.960938 C 236.03125 156.199219 235.703125 156.472656 235.398438 156.773438 C 235.097656 157.078125 234.824219 157.40625 234.585938 157.761719 C 234.347656 158.117188 234.148438 158.496094 233.984375 158.890625 C 233.820312 159.285156 233.695312 159.695312 233.613281 160.113281 C 233.53125 160.535156 233.488281 160.957031 233.488281 161.386719 L 233.488281 296.210938 C 233.488281 296.640625 233.53125 297.0625 233.613281 297.484375 C 233.695312 297.902344 233.820312 298.3125 233.984375 298.707031 C 234.148438 299.105469 234.347656 299.480469 234.585938 299.835938 C 234.824219 300.191406 235.097656 300.519531 235.398438 300.824219 C 235.703125 301.128906 236.03125 301.398438 236.386719 301.636719 C 236.742188 301.875 237.121094 302.074219 237.515625 302.238281 C 237.910156 302.402344 238.320312 302.527344 238.738281 302.609375 C 239.160156 302.691406 239.582031 302.734375 240.011719 302.734375 Z M 240.011719 302.734375 " fill-opacity="1" fill-rule="nonzero"/><path fill="#ff5757" d="M 135.640625 302.734375 C 136.066406 302.734375 136.492188 302.691406 136.910156 302.609375 C 137.332031 302.527344 137.738281 302.402344 138.136719 302.238281 C 138.53125 302.074219 138.90625 301.875 139.261719 301.636719 C 139.621094 301.398438 139.949219 301.128906 140.253906 300.824219 C 140.554688 300.519531 140.824219 300.191406 141.0625 299.835938 C 141.300781 299.480469 141.503906 299.105469 141.667969 298.707031 C 141.828125 298.3125 141.953125 297.902344 142.039062 297.484375 C 142.121094 297.0625 142.164062 296.640625 142.164062 296.210938 L 142.164062 161.386719 C 142.164062 160.957031 142.121094 160.535156 142.039062 160.113281 C 141.953125 159.695312 141.828125 159.285156 141.667969 158.890625 C 141.503906 158.496094 141.300781 158.117188 141.0625 157.761719 C 140.824219 157.40625 140.554688 157.078125 140.253906 156.773438 C 139.949219 156.472656 139.621094 156.199219 139.261719 155.960938 C 138.90625 155.722656 138.53125 155.523438 138.136719 155.359375 C 137.738281 155.195312 137.332031 155.070312 136.910156 154.988281 C 136.492188 154.90625 136.066406 154.863281 135.640625 154.863281 C 135.210938 154.863281 134.785156 154.90625 134.367188 154.988281 C 133.945312 155.070312 133.539062 155.195312 133.144531 155.359375 C 132.746094 155.523438 132.371094 155.722656 132.015625 155.960938 C 131.660156 156.199219 131.328125 156.472656 131.027344 156.773438 C 130.722656 157.078125 130.453125 157.40625 130.214844 157.761719 C 129.976562 158.117188 129.777344 158.496094 129.613281 158.890625 C 129.449219 159.285156 129.324219 159.695312 129.242188 160.113281 C 129.15625 160.535156 129.117188 160.957031 129.117188 161.386719 L 129.117188 296.210938 C 129.117188 296.640625 129.15625 297.0625 129.242188 297.484375 C 129.324219 297.902344 129.449219 298.3125 129.613281 298.707031 C 129.777344 299.105469 129.976562 299.480469 130.214844 299.835938 C 130.453125 300.191406 130.722656 300.519531 131.027344 300.824219 C 131.328125 301.128906 131.660156 301.398438 132.015625 301.636719 C 132.371094 301.875 132.746094 302.074219 133.144531 302.238281 C 133.539062 302.402344 133.945312 302.527344 134.367188 302.609375 C 134.785156 302.691406 135.210938 302.734375 135.640625 302.734375 Z M 135.640625 302.734375 " fill-opacity="1" fill-rule="nonzero"/></svg>