<svg xmlns="http://www.w3.org/2000/svg" xmlns:xlink="http://www.w3.org/1999/xlink" width="500" zoomAndPan="magnify" viewBox="0 0 375 374.999991" height="500" preserveAspectRatio="xMidYMid meet" version="1.2"><defs/><g id="fc6d17c428"><g style="fill:#ffffff;fill-opacity:1;"><g transform="translate(130.74609, 214.499986)"><path style="stroke:none" d="M 14.765625 -36.296875 L 14.765625 0 L 3.921875 0 L 3.921875 -36.296875 Z M 15.890625 -46.234375 C 15.890625 -45.367188 15.710938 -44.554688 15.359375 -43.796875 C 15.015625 -43.046875 14.535156 -42.382812 13.921875 -41.8125 C 13.316406 -41.238281 12.613281 -40.78125 11.8125 -40.4375 C 11.007812 -40.101562 10.148438 -39.9375 9.234375 -39.9375 C 8.347656 -39.9375 7.519531 -40.101562 6.75 -40.4375 C 5.976562 -40.78125 5.296875 -41.238281 4.703125 -41.8125 C 4.109375 -42.382812 3.640625 -43.046875 3.296875 -43.796875 C 2.960938 -44.554688 2.796875 -45.367188 2.796875 -46.234375 C 2.796875 -47.117188 2.960938 -47.945312 3.296875 -48.71875 C 3.640625 -49.488281 4.109375 -50.164062 4.703125 -50.75 C 5.296875 -51.332031 5.976562 -51.785156 6.75 -52.109375 C 7.519531 -52.441406 8.347656 -52.609375 9.234375 -52.609375 C 10.148438 -52.609375 11.007812 -52.441406 11.8125 -52.109375 C 12.613281 -51.785156 13.316406 -51.332031 13.921875 -50.75 C 14.535156 -50.164062 15.015625 -49.488281 15.359375 -48.71875 C 15.710938 -47.945312 15.890625 -47.117188 15.890625 -46.234375 Z M 15.890625 -46.234375 "/></g></g><g style="fill:#ffffff;fill-opacity:1;"><g transform="translate(149.435023, 214.499986)"><path style="stroke:none" d="M 22.40625 -14.765625 C 20.226562 -14.671875 18.4375 -14.484375 17.03125 -14.203125 C 15.632812 -13.929688 14.53125 -13.582031 13.71875 -13.15625 C 12.90625 -12.738281 12.335938 -12.257812 12.015625 -11.71875 C 11.703125 -11.1875 11.546875 -10.601562 11.546875 -9.96875 C 11.546875 -8.738281 11.882812 -7.867188 12.5625 -7.359375 C 13.238281 -6.859375 14.234375 -6.609375 15.546875 -6.609375 C 16.941406 -6.609375 18.164062 -6.851562 19.21875 -7.34375 C 20.269531 -7.832031 21.332031 -8.628906 22.40625 -9.734375 Z M 2.875 -31.25 C 5.0625 -33.1875 7.488281 -34.628906 10.15625 -35.578125 C 12.832031 -36.523438 15.703125 -37 18.765625 -37 C 20.953125 -37 22.925781 -36.640625 24.6875 -35.921875 C 26.445312 -35.210938 27.941406 -34.222656 29.171875 -32.953125 C 30.398438 -31.679688 31.335938 -30.171875 31.984375 -28.421875 C 32.640625 -26.671875 32.96875 -24.757812 32.96875 -22.6875 L 32.96875 0 L 28 0 C 26.96875 0 26.191406 -0.140625 25.671875 -0.421875 C 25.148438 -0.703125 24.710938 -1.285156 24.359375 -2.171875 L 23.59375 -4.171875 C 22.675781 -3.398438 21.796875 -2.722656 20.953125 -2.140625 C 20.117188 -1.554688 19.253906 -1.054688 18.359375 -0.640625 C 17.460938 -0.234375 16.503906 0.0664062 15.484375 0.265625 C 14.472656 0.460938 13.347656 0.5625 12.109375 0.5625 C 10.453125 0.5625 8.945312 0.347656 7.59375 -0.078125 C 6.238281 -0.515625 5.085938 -1.148438 4.140625 -1.984375 C 3.203125 -2.828125 2.472656 -3.875 1.953125 -5.125 C 1.441406 -6.375 1.1875 -7.816406 1.1875 -9.453125 C 1.1875 -10.753906 1.515625 -12.078125 2.171875 -13.421875 C 2.828125 -14.765625 3.957031 -15.988281 5.5625 -17.09375 C 7.175781 -18.207031 9.347656 -19.132812 12.078125 -19.875 C 14.804688 -20.625 18.25 -21.046875 22.40625 -21.140625 L 22.40625 -22.6875 C 22.40625 -24.800781 21.96875 -26.332031 21.09375 -27.28125 C 20.21875 -28.226562 18.972656 -28.703125 17.359375 -28.703125 C 16.078125 -28.703125 15.023438 -28.5625 14.203125 -28.28125 C 13.390625 -28 12.660156 -27.679688 12.015625 -27.328125 C 11.378906 -26.984375 10.753906 -26.671875 10.140625 -26.390625 C 9.535156 -26.109375 8.816406 -25.96875 7.984375 -25.96875 C 7.234375 -25.96875 6.597656 -26.15625 6.078125 -26.53125 C 5.566406 -26.90625 5.148438 -27.347656 4.828125 -27.859375 Z M 2.875 -31.25 "/></g></g><g style="fill:#ffffff;fill-opacity:1;"><g transform="translate(185.657951, 214.499986)"><path style="stroke:none" d="M 14.765625 -36.296875 L 14.765625 0 L 3.921875 0 L 3.921875 -36.296875 Z M 15.890625 -46.234375 C 15.890625 -45.367188 15.710938 -44.554688 15.359375 -43.796875 C 15.015625 -43.046875 14.535156 -42.382812 13.921875 -41.8125 C 13.316406 -41.238281 12.613281 -40.78125 11.8125 -40.4375 C 11.007812 -40.101562 10.148438 -39.9375 9.234375 -39.9375 C 8.347656 -39.9375 7.519531 -40.101562 6.75 -40.4375 C 5.976562 -40.78125 5.296875 -41.238281 4.703125 -41.8125 C 4.109375 -42.382812 3.640625 -43.046875 3.296875 -43.796875 C 2.960938 -44.554688 2.796875 -45.367188 2.796875 -46.234375 C 2.796875 -47.117188 2.960938 -47.945312 3.296875 -48.71875 C 3.640625 -49.488281 4.109375 -50.164062 4.703125 -50.75 C 5.296875 -51.332031 5.976562 -51.785156 6.75 -52.109375 C 7.519531 -52.441406 8.347656 -52.609375 9.234375 -52.609375 C 10.148438 -52.609375 11.007812 -52.441406 11.8125 -52.109375 C 12.613281 -51.785156 13.316406 -51.332031 13.921875 -50.75 C 14.535156 -50.164062 15.015625 -49.488281 15.359375 -48.71875 C 15.710938 -47.945312 15.890625 -47.117188 15.890625 -46.234375 Z M 15.890625 -46.234375 "/></g></g><g style="fill:#ffffff;fill-opacity:1;"><g transform="translate(204.346884, 214.499986)"><path style="stroke:none" d="M 13.6875 -32.375 C 14.382812 -33.03125 15.101562 -33.632812 15.84375 -34.1875 C 16.59375 -34.75 17.394531 -35.222656 18.25 -35.609375 C 19.101562 -35.992188 20.023438 -36.296875 21.015625 -36.515625 C 22.003906 -36.742188 23.082031 -36.859375 24.25 -36.859375 C 26.238281 -36.859375 27.992188 -36.515625 29.515625 -35.828125 C 31.046875 -35.140625 32.335938 -34.179688 33.390625 -32.953125 C 34.441406 -31.722656 35.234375 -30.265625 35.765625 -28.578125 C 36.304688 -26.890625 36.578125 -25.050781 36.578125 -23.0625 L 36.578125 0 L 25.71875 0 L 25.71875 -23.0625 C 25.71875 -24.832031 25.3125 -26.210938 24.5 -27.203125 C 23.6875 -28.203125 22.484375 -28.703125 20.890625 -28.703125 C 19.703125 -28.703125 18.585938 -28.445312 17.546875 -27.9375 C 16.515625 -27.4375 15.507812 -26.757812 14.53125 -25.90625 L 14.53125 0 L 3.671875 0 L 3.671875 -36.296875 L 10.390625 -36.296875 C 11.742188 -36.296875 12.632812 -35.6875 13.0625 -34.46875 Z M 13.6875 -32.375 "/></g></g></g></svg>