<svg xmlns="http://www.w3.org/2000/svg" xmlns:xlink="http://www.w3.org/1999/xlink" width="500" zoomAndPan="magnify" viewBox="0 0 375 374.999991" height="500" preserveAspectRatio="xMidYMid meet" version="1.0"><defs><clipPath id="880a7e4fc4"><path d="M 157 11.949219 L 362.949219 11.949219 L 362.949219 218 L 157 218 Z M 157 11.949219 " clip-rule="nonzero"/></clipPath></defs><path fill="#c9ddff" d="M 128.292969 246.703125 C 128.6875 247.101562 129.101562 247.476562 129.535156 247.832031 C 129.96875 248.1875 130.421875 248.523438 130.886719 248.832031 C 131.351562 249.144531 131.832031 249.433594 132.328125 249.695312 C 132.824219 249.960938 133.328125 250.199219 133.847656 250.414062 C 134.367188 250.628906 134.894531 250.820312 135.429688 250.980469 C 135.964844 251.144531 136.507812 251.28125 137.058594 251.390625 C 137.609375 251.5 138.164062 251.582031 138.722656 251.636719 C 139.28125 251.691406 139.839844 251.71875 140.398438 251.71875 C 140.960938 251.71875 141.519531 251.691406 142.078125 251.636719 C 142.636719 251.582031 143.191406 251.5 143.742188 251.390625 C 144.289062 251.28125 144.835938 251.144531 145.371094 250.980469 C 145.90625 250.820312 146.433594 250.628906 146.953125 250.414062 C 147.472656 250.199219 147.976562 249.960938 148.472656 249.695312 C 148.964844 249.433594 149.445312 249.144531 149.914062 248.832031 C 150.378906 248.523438 150.828125 248.1875 151.261719 247.832031 C 151.695312 247.476562 152.113281 247.101562 152.507812 246.703125 L 255.269531 143.945312 C 255.652344 143.546875 256.019531 143.128906 256.363281 142.695312 C 256.707031 142.261719 257.03125 141.808594 257.332031 141.34375 C 257.632812 140.878906 257.910156 140.398438 258.164062 139.90625 C 258.421875 139.414062 258.648438 138.910156 258.855469 138.394531 C 259.0625 137.878906 259.242188 137.355469 259.394531 136.824219 C 259.550781 136.289062 259.679688 135.75 259.78125 135.207031 C 259.882812 134.660156 259.960938 134.113281 260.007812 133.558594 C 260.058594 133.007812 260.078125 132.453125 260.074219 131.898438 C 260.070312 131.34375 260.039062 130.789062 259.980469 130.238281 C 259.921875 129.6875 259.835938 129.140625 259.722656 128.597656 C 259.613281 128.054688 259.472656 127.515625 259.308594 126.988281 C 259.148438 126.457031 258.957031 125.9375 258.742188 125.425781 C 258.527344 124.914062 258.289062 124.414062 258.027344 123.925781 C 257.761719 123.4375 257.476562 122.960938 257.167969 122.5 C 256.859375 122.039062 256.527344 121.597656 256.175781 121.167969 C 255.824219 120.738281 255.453125 120.328125 255.058594 119.9375 C 254.667969 119.542969 254.257812 119.171875 253.828125 118.820312 C 253.398438 118.46875 252.957031 118.136719 252.496094 117.828125 C 252.035156 117.519531 251.558594 117.230469 251.070312 116.96875 C 250.582031 116.707031 250.082031 116.46875 249.570312 116.253906 C 249.058594 116.039062 248.539062 115.847656 248.007812 115.683594 C 247.480469 115.519531 246.941406 115.382812 246.398438 115.273438 C 245.855469 115.160156 245.308594 115.074219 244.757812 115.015625 C 244.207031 114.957031 243.652344 114.925781 243.097656 114.921875 C 242.542969 114.917969 241.988281 114.9375 241.4375 114.988281 C 240.882812 115.035156 240.335938 115.113281 239.789062 115.214844 C 239.246094 115.316406 238.707031 115.445312 238.171875 115.601562 C 237.640625 115.753906 237.117188 115.933594 236.601562 116.140625 C 236.085938 116.347656 235.582031 116.574219 235.089844 116.832031 C 234.597656 117.085938 234.117188 117.363281 233.652344 117.664062 C 233.183594 117.964844 232.734375 118.289062 232.300781 118.632812 C 231.867188 118.976562 231.449219 119.34375 231.050781 119.726562 L 128.292969 222.488281 C 127.894531 222.882812 127.519531 223.300781 127.164062 223.734375 C 126.808594 224.167969 126.472656 224.617188 126.164062 225.082031 C 125.851562 225.546875 125.5625 226.027344 125.296875 226.523438 C 125.035156 227.019531 124.792969 227.523438 124.582031 228.042969 C 124.367188 228.5625 124.175781 229.089844 124.015625 229.625 C 123.851562 230.160156 123.714844 230.707031 123.605469 231.253906 C 123.496094 231.804688 123.414062 232.359375 123.359375 232.917969 C 123.304688 233.476562 123.277344 234.035156 123.277344 234.597656 C 123.277344 235.15625 123.304688 235.714844 123.359375 236.273438 C 123.414062 236.832031 123.496094 237.386719 123.605469 237.9375 C 123.714844 238.488281 123.851562 239.03125 124.015625 239.566406 C 124.175781 240.101562 124.367188 240.628906 124.582031 241.148438 C 124.792969 241.667969 125.035156 242.171875 125.296875 242.667969 C 125.5625 243.164062 125.851562 243.644531 126.164062 244.109375 C 126.472656 244.574219 126.808594 245.027344 127.164062 245.460938 C 127.519531 245.890625 127.894531 246.308594 128.292969 246.703125 Z M 128.292969 246.703125 " fill-opacity="1" fill-rule="nonzero"/><path fill="#c9ddff" d="M 196.796875 249.890625 L 141.308594 305.398438 C 140.117188 306.539062 138.871094 307.621094 137.574219 308.644531 C 136.28125 309.667969 134.9375 310.625 133.550781 311.519531 C 132.164062 312.414062 130.734375 313.242188 129.269531 314 C 127.804688 314.757812 126.304688 315.445312 124.773438 316.0625 C 123.238281 316.675781 121.683594 317.21875 120.097656 317.683594 C 118.515625 318.148438 116.914062 318.539062 115.292969 318.851562 C 113.671875 319.167969 112.039062 319.402344 110.394531 319.558594 C 108.75 319.714844 107.105469 319.792969 105.453125 319.792969 C 103.800781 319.792969 102.15625 319.714844 100.511719 319.558594 C 98.867188 319.402344 97.234375 319.167969 95.617188 318.851562 C 93.996094 318.539062 92.390625 318.148438 90.808594 317.683594 C 89.222656 317.21875 87.667969 316.675781 86.132812 316.0625 C 84.601562 315.445312 83.101562 314.757812 81.636719 314 C 80.171875 313.242188 78.742188 312.414062 77.355469 311.519531 C 75.96875 310.625 74.628906 309.667969 73.332031 308.644531 C 72.035156 307.621094 70.792969 306.539062 69.597656 305.398438 C 68.425781 304.222656 67.3125 302.996094 66.261719 301.714844 C 65.207031 300.429688 64.222656 299.101562 63.300781 297.71875 C 62.378906 296.339844 61.527344 294.917969 60.742188 293.457031 C 59.960938 291.992188 59.253906 290.496094 58.617188 288.960938 C 57.984375 287.429688 57.425781 285.871094 56.945312 284.28125 C 56.460938 282.695312 56.058594 281.085938 55.734375 279.460938 C 55.414062 277.832031 55.167969 276.191406 55.007812 274.542969 C 54.84375 272.890625 54.761719 271.234375 54.761719 269.578125 C 54.761719 267.917969 54.84375 266.261719 55.007812 264.613281 C 55.167969 262.960938 55.414062 261.320312 55.734375 259.695312 C 56.058594 258.066406 56.460938 256.460938 56.945312 254.871094 C 57.425781 253.285156 57.984375 251.722656 58.617188 250.191406 C 59.253906 248.660156 59.960938 247.160156 60.742188 245.699219 C 61.527344 244.234375 62.378906 242.8125 63.300781 241.433594 C 64.222656 240.054688 65.207031 238.722656 66.261719 237.441406 C 67.3125 236.15625 68.425781 234.929688 69.597656 233.757812 L 125.089844 178.25 C 125.472656 177.851562 125.839844 177.433594 126.183594 177 C 126.527344 176.566406 126.851562 176.113281 127.152344 175.648438 C 127.453125 175.183594 127.730469 174.703125 127.988281 174.210938 C 128.242188 173.71875 128.472656 173.214844 128.675781 172.699219 C 128.882812 172.183594 129.0625 171.660156 129.21875 171.125 C 129.371094 170.59375 129.5 170.054688 129.601562 169.511719 C 129.707031 168.964844 129.78125 168.417969 129.828125 167.863281 C 129.878906 167.3125 129.902344 166.757812 129.894531 166.203125 C 129.890625 165.648438 129.859375 165.09375 129.800781 164.542969 C 129.742188 163.992188 129.65625 163.445312 129.546875 162.902344 C 129.433594 162.359375 129.296875 161.820312 129.132812 161.289062 C 128.96875 160.761719 128.777344 160.242188 128.5625 159.730469 C 128.351562 159.21875 128.109375 158.71875 127.847656 158.230469 C 127.585938 157.742188 127.296875 157.265625 126.988281 156.804688 C 126.679688 156.34375 126.351562 155.902344 125.996094 155.472656 C 125.644531 155.042969 125.273438 154.632812 124.878906 154.242188 C 124.488281 153.847656 124.078125 153.476562 123.648438 153.125 C 123.222656 152.773438 122.777344 152.441406 122.316406 152.132812 C 121.855469 151.824219 121.382812 151.535156 120.894531 151.273438 C 120.40625 151.011719 119.90625 150.773438 119.394531 150.558594 C 118.882812 150.34375 118.359375 150.152344 117.832031 149.988281 C 117.300781 149.824219 116.765625 149.6875 116.21875 149.574219 C 115.675781 149.464844 115.128906 149.378906 114.578125 149.320312 C 114.027344 149.261719 113.472656 149.230469 112.917969 149.226562 C 112.363281 149.21875 111.8125 149.242188 111.257812 149.292969 C 110.707031 149.339844 110.15625 149.417969 109.613281 149.519531 C 109.066406 149.621094 108.527344 149.75 107.996094 149.902344 C 107.460938 150.058594 106.9375 150.238281 106.421875 150.445312 C 105.90625 150.648438 105.402344 150.878906 104.910156 151.132812 C 104.417969 151.390625 103.9375 151.667969 103.472656 151.96875 C 103.007812 152.269531 102.558594 152.59375 102.121094 152.9375 C 101.6875 153.28125 101.269531 153.648438 100.871094 154.03125 L 45.382812 209.539062 C 44.398438 210.523438 43.441406 211.53125 42.507812 212.558594 C 41.574219 213.589844 40.667969 214.640625 39.785156 215.71875 C 38.902344 216.792969 38.046875 217.886719 37.21875 219.003906 C 36.390625 220.121094 35.589844 221.257812 34.820312 222.414062 C 34.046875 223.570312 33.304688 224.742188 32.589844 225.9375 C 31.875 227.128906 31.1875 228.335938 30.535156 229.5625 C 29.878906 230.789062 29.253906 232.03125 28.660156 233.289062 C 28.066406 234.542969 27.5 235.816406 26.96875 237.101562 C 26.4375 238.382812 25.9375 239.679688 25.46875 240.988281 C 25 242.300781 24.566406 243.617188 24.160156 244.949219 C 23.757812 246.28125 23.386719 247.617188 23.050781 248.96875 C 22.710938 250.316406 22.40625 251.671875 22.136719 253.035156 C 21.867188 254.398438 21.628906 255.769531 21.425781 257.144531 C 21.21875 258.519531 21.050781 259.898438 20.914062 261.28125 C 20.777344 262.664062 20.675781 264.050781 20.609375 265.441406 C 20.539062 266.828125 20.503906 268.21875 20.503906 269.609375 C 20.507812 271 20.539062 272.386719 20.609375 273.777344 C 20.675781 275.164062 20.777344 276.550781 20.914062 277.933594 C 21.050781 279.316406 21.222656 280.699219 21.425781 282.074219 C 21.628906 283.449219 21.867188 284.816406 22.140625 286.179688 C 22.410156 287.542969 22.714844 288.898438 23.054688 290.25 C 23.390625 291.597656 23.761719 292.9375 24.164062 294.265625 C 24.570312 295.597656 25.003906 296.917969 25.472656 298.226562 C 25.941406 299.535156 26.441406 300.832031 26.972656 302.117188 C 27.507812 303.398438 28.070312 304.671875 28.664062 305.925781 C 29.257812 307.183594 29.882812 308.425781 30.539062 309.652344 C 31.195312 310.878906 31.878906 312.085938 32.59375 313.28125 C 33.308594 314.472656 34.054688 315.644531 34.824219 316.800781 C 35.597656 317.957031 36.398438 319.09375 37.226562 320.210938 C 38.054688 321.328125 38.910156 322.421875 39.792969 323.496094 C 40.675781 324.570312 41.582031 325.625 42.515625 326.652344 C 43.449219 327.683594 44.40625 328.691406 45.390625 329.671875 C 46.375 330.65625 47.378906 331.613281 48.410156 332.546875 C 49.441406 333.480469 50.492188 334.390625 51.566406 335.273438 C 52.644531 336.152344 53.738281 337.007812 54.855469 337.835938 C 55.972656 338.664062 57.109375 339.464844 58.265625 340.238281 C 59.421875 341.007812 60.59375 341.753906 61.785156 342.46875 C 62.980469 343.183594 64.1875 343.867188 65.414062 344.523438 C 66.640625 345.175781 67.882812 345.800781 69.140625 346.398438 C 70.394531 346.992188 71.667969 347.554688 72.949219 348.085938 C 74.234375 348.617188 75.53125 349.117188 76.839844 349.585938 C 78.148438 350.054688 79.46875 350.492188 80.800781 350.894531 C 82.128906 351.296875 83.46875 351.667969 84.820312 352.003906 C 86.167969 352.34375 87.523438 352.648438 88.886719 352.917969 C 90.25 353.191406 91.621094 353.425781 92.996094 353.632812 C 94.371094 353.835938 95.75 354.003906 97.132812 354.140625 C 98.515625 354.277344 99.902344 354.378906 101.292969 354.449219 C 102.679688 354.515625 104.070312 354.550781 105.460938 354.550781 C 106.851562 354.550781 108.238281 354.515625 109.628906 354.449219 C 111.015625 354.378906 112.402344 354.277344 113.785156 354.140625 C 115.167969 354.003906 116.546875 353.832031 117.921875 353.628906 C 119.300781 353.425781 120.667969 353.1875 122.03125 352.917969 C 123.394531 352.644531 124.75 352.339844 126.101562 352.003906 C 127.449219 351.664062 128.789062 351.292969 130.117188 350.890625 C 131.449219 350.488281 132.769531 350.050781 134.078125 349.582031 C 135.386719 349.113281 136.683594 348.613281 137.96875 348.082031 C 139.25 347.550781 140.523438 346.984375 141.777344 346.390625 C 143.035156 345.796875 144.277344 345.171875 145.503906 344.515625 C 146.730469 343.859375 147.9375 343.175781 149.128906 342.460938 C 150.324219 341.746094 151.496094 341.003906 152.652344 340.230469 C 153.808594 339.457031 154.945312 338.65625 156.0625 337.828125 C 157.179688 337 158.273438 336.144531 159.347656 335.265625 C 160.421875 334.382812 161.476562 333.472656 162.503906 332.539062 C 163.535156 331.605469 164.542969 330.648438 165.523438 329.664062 L 221.015625 274.15625 C 221.410156 273.761719 221.789062 273.347656 222.144531 272.914062 C 222.5 272.480469 222.832031 272.027344 223.144531 271.5625 C 223.457031 271.097656 223.746094 270.617188 224.011719 270.121094 C 224.273438 269.625 224.515625 269.121094 224.730469 268.601562 C 224.945312 268.082031 225.132812 267.554688 225.296875 267.019531 C 225.460938 266.480469 225.597656 265.9375 225.707031 265.386719 C 225.816406 264.835938 225.898438 264.28125 225.953125 263.722656 C 226.007812 263.167969 226.035156 262.605469 226.039062 262.046875 C 226.039062 261.484375 226.011719 260.925781 225.957031 260.367188 C 225.902344 259.808594 225.820312 259.253906 225.710938 258.703125 C 225.601562 258.152344 225.464844 257.609375 225.304688 257.070312 C 225.140625 256.535156 224.953125 256.007812 224.738281 255.488281 C 224.523438 254.96875 224.285156 254.460938 224.019531 253.96875 C 223.757812 253.472656 223.46875 252.992188 223.15625 252.523438 C 222.847656 252.058594 222.511719 251.609375 222.15625 251.171875 C 221.800781 250.738281 221.425781 250.324219 221.027344 249.925781 C 220.632812 249.53125 220.21875 249.152344 219.785156 248.796875 C 219.351562 248.441406 218.902344 248.105469 218.433594 247.792969 C 217.96875 247.480469 217.488281 247.191406 216.996094 246.925781 C 216.5 246.660156 215.992188 246.421875 215.476562 246.207031 C 214.957031 245.992188 214.429688 245.800781 213.894531 245.636719 C 213.355469 245.472656 212.8125 245.335938 212.261719 245.226562 C 211.710938 245.117188 211.160156 245.035156 210.601562 244.976562 C 210.042969 244.921875 209.480469 244.894531 208.921875 244.894531 C 208.359375 244.890625 207.800781 244.917969 207.242188 244.972656 C 206.683594 245.027344 206.128906 245.109375 205.578125 245.21875 C 205.027344 245.324219 204.484375 245.460938 203.945312 245.621094 C 203.410156 245.785156 202.882812 245.972656 202.363281 246.1875 C 201.84375 246.398438 201.335938 246.640625 200.839844 246.902344 C 200.347656 247.167969 199.863281 247.453125 199.398438 247.765625 C 198.929688 248.074219 198.480469 248.40625 198.046875 248.761719 C 197.609375 249.117188 197.195312 249.492188 196.796875 249.890625 Z M 196.796875 249.890625 " fill-opacity="1" fill-rule="nonzero"/><g clip-path="url(#880a7e4fc4)"><path fill="#c9ddff" d="M 338.109375 36.820312 C 337.125 35.835938 336.121094 34.878906 335.089844 33.945312 C 334.0625 33.011719 333.007812 32.105469 331.933594 31.222656 C 330.859375 30.339844 329.765625 29.484375 328.648438 28.65625 C 327.535156 27.832031 326.398438 27.03125 325.242188 26.257812 C 324.085938 25.484375 322.914062 24.742188 321.722656 24.027344 C 320.53125 23.3125 319.320312 22.628906 318.097656 21.972656 C 316.871094 21.320312 315.628906 20.695312 314.375 20.101562 C 313.117188 19.503906 311.847656 18.941406 310.5625 18.410156 C 309.28125 17.878906 307.984375 17.378906 306.675781 16.910156 C 305.367188 16.441406 304.046875 16.007812 302.71875 15.601562 C 301.390625 15.199219 300.050781 14.828125 298.703125 14.492188 C 297.355469 14.152344 296 13.851562 294.636719 13.578125 C 293.273438 13.308594 291.90625 13.070312 290.53125 12.867188 C 289.15625 12.660156 287.777344 12.492188 286.394531 12.355469 C 285.011719 12.21875 283.625 12.117188 282.238281 12.050781 C 280.851562 11.980469 279.460938 11.945312 278.070312 11.945312 C 276.683594 11.945312 275.292969 11.980469 273.90625 12.050781 C 272.515625 12.117188 271.132812 12.21875 269.75 12.355469 C 268.367188 12.492188 266.988281 12.660156 265.613281 12.867188 C 264.238281 13.070312 262.871094 13.308594 261.507812 13.578125 C 260.144531 13.851562 258.789062 14.152344 257.441406 14.492188 C 256.09375 14.828125 254.753906 15.199219 253.425781 15.601562 C 252.09375 16.007812 250.777344 16.441406 249.46875 16.910156 C 248.160156 17.378906 246.863281 17.878906 245.578125 18.410156 C 244.296875 18.941406 243.023438 19.503906 241.769531 20.101562 C 240.511719 20.695312 239.273438 21.320312 238.046875 21.972656 C 236.820312 22.628906 235.613281 23.3125 234.421875 24.027344 C 233.230469 24.742188 232.054688 25.484375 230.898438 26.257812 C 229.746094 27.03125 228.609375 27.832031 227.492188 28.65625 C 226.378906 29.484375 225.28125 30.339844 224.207031 31.222656 C 223.132812 32.105469 222.082031 33.011719 221.050781 33.945312 C 220.023438 34.878906 219.015625 35.835938 218.035156 36.820312 L 162.542969 92.324219 C 162.160156 92.726562 161.792969 93.140625 161.449219 93.574219 C 161.105469 94.011719 160.78125 94.460938 160.480469 94.925781 C 160.179688 95.390625 159.902344 95.871094 159.648438 96.363281 C 159.390625 96.855469 159.164062 97.363281 158.957031 97.875 C 158.75 98.390625 158.570312 98.914062 158.417969 99.449219 C 158.261719 99.980469 158.132812 100.519531 158.03125 101.066406 C 157.929688 101.609375 157.851562 102.160156 157.804688 102.710938 C 157.753906 103.265625 157.734375 103.816406 157.738281 104.371094 C 157.742188 104.925781 157.773438 105.480469 157.832031 106.03125 C 157.890625 106.582031 157.976562 107.132812 158.089844 107.675781 C 158.199219 108.21875 158.335938 108.753906 158.5 109.285156 C 158.664062 109.8125 158.855469 110.335938 159.070312 110.847656 C 159.285156 111.359375 159.523438 111.859375 159.785156 112.347656 C 160.046875 112.835938 160.335938 113.308594 160.644531 113.769531 C 160.953125 114.230469 161.285156 114.675781 161.636719 115.101562 C 161.988281 115.53125 162.359375 115.941406 162.753906 116.335938 C 163.144531 116.726562 163.554688 117.097656 163.984375 117.449219 C 164.414062 117.804688 164.855469 118.132812 165.316406 118.441406 C 165.777344 118.753906 166.253906 119.039062 166.742188 119.300781 C 167.230469 119.566406 167.730469 119.804688 168.242188 120.019531 C 168.753906 120.234375 169.273438 120.421875 169.804688 120.585938 C 170.332031 120.75 170.871094 120.886719 171.414062 121 C 171.957031 121.109375 172.503906 121.195312 173.054688 121.253906 C 173.605469 121.3125 174.160156 121.34375 174.714844 121.351562 C 175.269531 121.355469 175.824219 121.332031 176.375 121.285156 C 176.929688 121.234375 177.476562 121.160156 178.023438 121.054688 C 178.566406 120.953125 179.105469 120.824219 179.640625 120.671875 C 180.171875 120.515625 180.695312 120.335938 181.210938 120.128906 C 181.726562 119.925781 182.230469 119.695312 182.722656 119.441406 C 183.214844 119.1875 183.695312 118.90625 184.160156 118.605469 C 184.625 118.304688 185.078125 117.984375 185.511719 117.636719 C 185.945312 117.292969 186.363281 116.929688 186.761719 116.542969 L 242.25 61.035156 C 243.445312 59.894531 244.6875 58.8125 245.984375 57.789062 C 247.28125 56.765625 248.621094 55.808594 250.007812 54.910156 C 251.394531 54.015625 252.824219 53.191406 254.289062 52.433594 C 255.757812 51.671875 257.253906 50.988281 258.789062 50.371094 C 260.320312 49.757812 261.878906 49.214844 263.460938 48.75 C 265.042969 48.28125 266.648438 47.894531 268.269531 47.578125 C 269.890625 47.265625 271.519531 47.03125 273.164062 46.875 C 274.808594 46.714844 276.453125 46.636719 278.105469 46.636719 C 279.757812 46.636719 281.402344 46.714844 283.046875 46.875 C 284.691406 47.03125 286.324219 47.265625 287.945312 47.578125 C 289.566406 47.894531 291.167969 48.28125 292.75 48.75 C 294.335938 49.214844 295.890625 49.757812 297.425781 50.371094 C 298.957031 50.988281 300.457031 51.671875 301.921875 52.433594 C 303.386719 53.191406 304.816406 54.015625 306.203125 54.910156 C 307.589844 55.808594 308.933594 56.765625 310.226562 57.789062 C 311.523438 58.8125 312.769531 59.894531 313.960938 61.035156 C 315.132812 62.207031 316.246094 63.4375 317.296875 64.71875 C 318.351562 66 319.339844 67.332031 320.257812 68.710938 C 321.179688 70.089844 322.03125 71.511719 322.816406 72.976562 C 323.597656 74.441406 324.304688 75.9375 324.941406 77.46875 C 325.574219 79.003906 326.132812 80.5625 326.613281 82.152344 C 327.097656 83.738281 327.5 85.347656 327.824219 86.972656 C 328.148438 88.601562 328.390625 90.238281 328.550781 91.890625 C 328.714844 93.542969 328.796875 95.195312 328.796875 96.855469 C 328.796875 98.515625 328.714844 100.167969 328.550781 101.820312 C 328.390625 103.472656 328.148438 105.109375 327.824219 106.738281 C 327.5 108.367188 327.097656 109.972656 326.613281 111.5625 C 326.132812 113.148438 325.574219 114.707031 324.941406 116.242188 C 324.304688 117.773438 323.597656 119.273438 322.816406 120.734375 C 322.03125 122.199219 321.179688 123.621094 320.257812 125 C 319.339844 126.378906 318.351562 127.710938 317.296875 128.992188 C 316.246094 130.273438 315.132812 131.503906 313.960938 132.675781 L 258.46875 188.183594 C 258.0625 188.578125 257.675781 188.988281 257.308594 189.421875 C 256.941406 189.855469 256.597656 190.304688 256.273438 190.769531 C 255.953125 191.238281 255.652344 191.71875 255.378906 192.214844 C 255.105469 192.710938 254.855469 193.222656 254.632812 193.742188 C 254.410156 194.261719 254.210938 194.792969 254.039062 195.335938 C 253.867188 195.875 253.726562 196.421875 253.609375 196.976562 C 253.492188 197.535156 253.402344 198.09375 253.339844 198.65625 C 253.28125 199.21875 253.246094 199.785156 253.242188 200.351562 C 253.238281 200.921875 253.261719 201.484375 253.3125 202.050781 C 253.363281 202.617188 253.441406 203.175781 253.550781 203.734375 C 253.65625 204.289062 253.789062 204.839844 253.953125 205.382812 C 254.113281 205.929688 254.300781 206.460938 254.515625 206.988281 C 254.730469 207.511719 254.972656 208.023438 255.238281 208.527344 C 255.503906 209.027344 255.792969 209.511719 256.109375 209.984375 C 256.421875 210.457031 256.757812 210.914062 257.117188 211.351562 C 257.476562 211.792969 257.855469 212.210938 258.257812 212.613281 C 258.660156 213.011719 259.078125 213.394531 259.519531 213.753906 C 259.957031 214.113281 260.410156 214.449219 260.882812 214.761719 C 261.355469 215.078125 261.84375 215.367188 262.34375 215.632812 C 262.84375 215.898438 263.359375 216.136719 263.882812 216.351562 C 264.40625 216.566406 264.941406 216.757812 265.484375 216.917969 C 266.03125 217.078125 266.578125 217.214844 267.136719 217.320312 C 267.695312 217.425781 268.253906 217.507812 268.820312 217.558594 C 269.382812 217.609375 269.949219 217.632812 270.515625 217.628906 C 271.085938 217.621094 271.648438 217.589844 272.214844 217.527344 C 272.777344 217.46875 273.335938 217.378906 273.890625 217.261719 C 274.445312 217.144531 274.996094 217 275.535156 216.832031 C 276.074219 216.660156 276.605469 216.460938 277.128906 216.238281 C 277.648438 216.015625 278.15625 215.765625 278.652344 215.492188 C 279.152344 215.214844 279.632812 214.917969 280.097656 214.597656 C 280.566406 214.273438 281.015625 213.929688 281.449219 213.5625 C 281.878906 213.195312 282.292969 212.808594 282.6875 212.398438 L 338.175781 156.894531 C 339.160156 155.910156 340.117188 154.902344 341.050781 153.875 C 341.984375 152.84375 342.890625 151.792969 343.769531 150.71875 C 344.652344 149.640625 345.507812 148.546875 346.335938 147.429688 C 347.160156 146.3125 347.960938 145.179688 348.734375 144.023438 C 349.503906 142.867188 350.246094 141.691406 350.960938 140.5 C 351.675781 139.308594 352.359375 138.097656 353.015625 136.875 C 353.667969 135.648438 354.292969 134.40625 354.886719 133.148438 C 355.480469 131.894531 356.042969 130.625 356.574219 129.339844 C 357.105469 128.054688 357.605469 126.757812 358.074219 125.449219 C 358.539062 124.140625 358.976562 122.820312 359.378906 121.492188 C 359.78125 120.164062 360.152344 118.824219 360.488281 117.476562 C 360.824219 116.125 361.128906 114.769531 361.398438 113.40625 C 361.667969 112.042969 361.90625 110.675781 362.109375 109.300781 C 362.3125 107.925781 362.480469 106.546875 362.617188 105.164062 C 362.753906 103.78125 362.855469 102.394531 362.921875 101.007812 C 362.988281 99.621094 363.023438 98.230469 363.023438 96.839844 C 363.019531 95.453125 362.984375 94.0625 362.917969 92.675781 C 362.847656 91.289062 362.746094 89.902344 362.609375 88.519531 C 362.472656 87.136719 362.300781 85.757812 362.09375 84.382812 C 361.890625 83.007812 361.652344 81.640625 361.378906 80.277344 C 361.109375 78.914062 360.804688 77.558594 360.464844 76.210938 C 360.125 74.863281 359.753906 73.523438 359.351562 72.195312 C 358.945312 70.867188 358.507812 69.546875 358.039062 68.238281 C 357.570312 66.929688 357.070312 65.636719 356.539062 64.351562 C 356.003906 63.066406 355.441406 61.796875 354.84375 60.542969 C 354.25 59.285156 353.625 58.046875 352.96875 56.820312 C 352.3125 55.597656 351.628906 54.386719 350.910156 53.195312 C 350.195312 52.003906 349.453125 50.832031 348.679688 49.675781 C 347.90625 48.523438 347.105469 47.386719 346.277344 46.273438 C 345.449219 45.15625 344.59375 44.0625 343.710938 42.988281 C 342.828125 41.914062 341.917969 40.863281 340.984375 39.835938 C 340.050781 38.804688 339.09375 37.800781 338.109375 36.820312 Z M 338.109375 36.820312 " fill-opacity="1" fill-rule="nonzero"/></g></svg>