<svg xmlns="http://www.w3.org/2000/svg" xmlns:xlink="http://www.w3.org/1999/xlink" width="500" zoomAndPan="magnify" viewBox="0 0 375 374.999991" height="500" preserveAspectRatio="xMidYMid meet" version="1.0"><defs><clipPath id="e4cb2a9028"><path d="M 14 13 L 302 13 L 302 363.226562 L 14 363.226562 Z M 14 13 " clip-rule="nonzero"/></clipPath></defs><g clip-path="url(#e4cb2a9028)"><path fill="#c9ddff" d="M 78.382812 44.929688 C 60.785156 44.929688 46.523438 59.191406 46.523438 76.789062 L 46.523438 299.800781 C 46.523438 317.398438 60.785156 331.660156 78.382812 331.660156 L 205.816406 331.660156 L 205.816406 363.519531 L 78.382812 363.519531 C 43.191406 363.519531 14.664062 334.992188 14.664062 299.800781 L 14.664062 76.789062 C 14.664062 41.597656 43.191406 13.070312 78.382812 13.070312 L 189.886719 13.070312 C 194.113281 13.070312 198.164062 14.75 201.152344 17.734375 L 296.730469 113.3125 C 299.714844 116.300781 301.394531 120.351562 301.394531 124.578125 L 301.394531 156.4375 L 269.535156 156.4375 L 269.535156 131.175781 L 183.289062 44.929688 Z M 78.382812 44.929688 " fill-opacity="1" fill-rule="evenodd"/></g><path fill="#c9ddff" d="M 183.792969 14.28125 C 189.746094 11.816406 196.59375 13.179688 201.152344 17.734375 L 296.730469 113.3125 C 301.285156 117.867188 302.648438 124.71875 300.183594 130.671875 C 297.714844 136.625 291.910156 140.507812 285.464844 140.507812 L 237.675781 140.507812 C 202.488281 140.507812 173.957031 111.976562 173.957031 76.789062 L 173.957031 29 C 173.957031 22.554688 177.839844 16.746094 183.792969 14.28125 Z M 205.816406 67.457031 L 205.816406 76.789062 C 205.816406 94.382812 220.082031 108.648438 237.675781 108.648438 L 247.007812 108.648438 Z M 205.816406 67.457031 " fill-opacity="1" fill-rule="evenodd"/><path fill="#c9ddff" d="M 245.640625 204.222656 C 223.648438 204.222656 205.816406 222.054688 205.816406 244.046875 C 205.816406 266.042969 223.648438 283.871094 245.640625 283.871094 C 267.636719 283.871094 285.464844 266.042969 285.464844 244.046875 C 285.464844 222.054688 267.636719 204.222656 245.640625 204.222656 Z M 173.957031 244.046875 C 173.957031 204.457031 206.050781 172.363281 245.640625 172.363281 C 285.230469 172.363281 317.324219 204.457031 317.324219 244.046875 C 317.324219 283.636719 285.230469 315.730469 245.640625 315.730469 C 206.050781 315.730469 173.957031 283.636719 173.957031 244.046875 Z M 173.957031 244.046875 " fill-opacity="1" fill-rule="evenodd"/><path fill="#c9ddff" d="M 296.730469 272.609375 L 360.449219 336.328125 L 337.921875 358.855469 L 274.203125 295.136719 Z M 296.730469 272.609375 " fill-opacity="1" fill-rule="evenodd"/><path fill="#c9ddff" d="M 78.382812 92.71875 L 158.027344 92.71875 L 158.027344 124.578125 L 78.382812 124.578125 Z M 78.382812 92.71875 " fill-opacity="1" fill-rule="evenodd"/><path fill="#c9ddff" d="M 78.382812 172.363281 L 158.027344 172.363281 L 158.027344 204.222656 L 78.382812 204.222656 Z M 78.382812 172.363281 " fill-opacity="1" fill-rule="evenodd"/><path fill="#c9ddff" d="M 78.382812 252.011719 L 158.027344 252.011719 L 158.027344 283.871094 L 78.382812 283.871094 Z M 78.382812 252.011719 " fill-opacity="1" fill-rule="evenodd"/></svg>